<svg width="40" height="39" viewBox="0 0 40 39" fill="none" xmlns="http://www.w3.org/2000/svg">
<foreignObject x="-49.0254" y="-50" width="138.076" height="138.076"><div xmlns="http://www.w3.org/1999/xhtml" style="backdrop-filter:blur(25px);clip-path:url(#bgblur_0_119_4426_clip_path);height:100%;width:100%"></div></foreignObject><g data-figma-bg-blur-radius="50">
<path d="M9.97461 0.5H30.0508C34.7451 0.500122 38.5508 4.30565 38.5508 9V29.0762C38.5507 33.7704 34.745 37.5761 30.0508 37.5762H9.97461C5.28026 37.5762 1.47473 33.7705 1.47461 29.0762V9L1.48535 8.5625C1.71305 4.07139 5.42692 0.5 9.97461 0.5Z" fill="#4592CA"/>
<path d="M9.97461 0.5H30.0508C34.7451 0.500122 38.5508 4.30565 38.5508 9V29.0762C38.5507 33.7704 34.745 37.5761 30.0508 37.5762H9.97461C5.28026 37.5762 1.47473 33.7705 1.47461 29.0762V9L1.48535 8.5625C1.71305 4.07139 5.42692 0.5 9.97461 0.5Z" stroke="url(#paint0_linear_119_4426)"/>
<path d="M20.3177 11.1064C20.8966 11.1042 21.4755 11.11 22.0542 11.1239L22.2081 11.1294C22.3857 11.1358 22.5611 11.1437 22.7728 11.1532C23.6169 11.1929 24.1928 11.3262 24.6981 11.5221C25.2216 11.7236 25.6627 11.9965 26.1037 12.4375C26.507 12.8338 26.8191 13.3132 27.0183 13.8424C27.2143 14.3477 27.3475 14.9244 27.3872 15.7684C27.3967 15.9794 27.4046 16.1555 27.411 16.3332L27.4157 16.4871C27.4298 17.0655 27.4359 17.6441 27.434 18.2227L27.4348 18.8144V19.8536C27.4367 20.4325 27.4306 21.0113 27.4165 21.59L27.4118 21.7439C27.4054 21.9216 27.3975 22.0969 27.388 22.3087C27.3483 23.1527 27.2135 23.7286 27.0183 24.2339C26.8197 24.7636 26.5075 25.2434 26.1037 25.6396C25.707 26.0428 25.2274 26.3549 24.6981 26.5542C24.1928 26.7501 23.6169 26.8834 22.7728 26.923C22.5611 26.9326 22.3857 26.9405 22.2081 26.9468L22.0542 26.9516C21.4755 26.9657 20.8966 26.9718 20.3177 26.9698L19.726 26.9706H18.6876C18.1088 26.9726 17.5299 26.9665 16.9512 26.9524L16.7973 26.9476C16.609 26.9408 16.4207 26.9329 16.2325 26.9238C15.3885 26.8842 14.8126 26.7493 14.3065 26.5542C13.7772 26.3553 13.2977 26.0432 12.9017 25.6396C12.4979 25.2432 12.1855 24.7635 11.9862 24.2339C11.7903 23.7286 11.6571 23.1527 11.6174 22.3087C11.6086 22.1205 11.6006 21.9322 11.5936 21.7439L11.5896 21.59C11.575 21.0113 11.5684 20.4325 11.5698 19.8536V18.2227C11.5676 17.6441 11.5734 17.0655 11.5872 16.4871L11.5928 16.3332C11.5991 16.1555 11.6071 15.9794 11.6166 15.7684C11.6563 14.9236 11.7895 14.3485 11.9855 13.8424C12.1849 13.313 12.4979 12.8337 12.9025 12.4383C13.2982 12.0343 13.7774 11.7217 14.3065 11.5221C14.8126 11.3262 15.3877 11.1929 16.2325 11.1532L16.7973 11.1294L16.9512 11.1255C17.5296 11.1109 18.1082 11.1043 18.6868 11.1057L20.3177 11.1064ZM19.5023 15.0727C18.9768 15.0653 18.455 15.1623 17.9673 15.3583C17.4797 15.5543 17.0358 15.8452 16.6615 16.2142C16.2873 16.5832 15.9901 17.0229 15.7873 17.5078C15.5844 17.9926 15.4799 18.513 15.4799 19.0385C15.4799 19.5641 15.5844 20.0844 15.7873 20.5693C15.9901 21.0542 16.2873 21.4939 16.6615 21.8629C17.0358 22.2319 17.4797 22.5228 17.9673 22.7188C18.455 22.9147 18.9768 23.0118 19.5023 23.0044C20.5542 23.0044 21.563 22.5865 22.3068 21.8427C23.0507 21.0989 23.4685 20.0901 23.4685 19.0381C23.4685 17.9862 23.0507 16.9774 22.3068 16.2336C21.563 15.4898 20.5542 15.0727 19.5023 15.0727ZM19.5023 16.6592C19.8184 16.6534 20.1325 16.7106 20.4263 16.8275C20.72 16.9445 20.9875 17.1187 21.2131 17.3402C21.4388 17.5617 21.618 17.8259 21.7404 18.1174C21.8628 18.409 21.9258 18.722 21.9259 19.0381C21.9259 19.3543 21.863 19.6673 21.7407 19.9589C21.6184 20.2504 21.4393 20.5147 21.2137 20.7363C20.9882 20.9578 20.7207 21.1322 20.427 21.2492C20.1333 21.3663 19.8192 21.4236 19.5031 21.4179C18.8719 21.4179 18.2666 21.1672 17.8203 20.7209C17.3741 20.2746 17.1233 19.6693 17.1233 19.0381C17.1233 18.407 17.3741 17.8017 17.8203 17.3554C18.2666 16.9091 18.8719 16.6584 19.5031 16.6584L19.5023 16.6592ZM23.6668 13.8828C23.4109 13.8931 23.1689 14.0019 22.9915 14.1866C22.814 14.3713 22.7149 14.6175 22.7149 14.8736C22.7149 15.1297 22.814 15.3759 22.9915 15.5606C23.1689 15.7452 23.4109 15.8541 23.6668 15.8644C23.9298 15.8644 24.182 15.7599 24.368 15.5739C24.5539 15.388 24.6584 15.1358 24.6584 14.8728C24.6584 14.6098 24.5539 14.3576 24.368 14.1717C24.182 13.9857 23.9298 13.8812 23.6668 13.8812V13.8828Z" fill="white"/>
</g>
<defs>
<clipPath id="bgblur_0_119_4426_clip_path" transform="translate(49.0254 50)"><path d="M9.97461 0.5H30.0508C34.7451 0.500122 38.5508 4.30565 38.5508 9V29.0762C38.5507 33.7704 34.745 37.5761 30.0508 37.5762H9.97461C5.28026 37.5762 1.47473 33.7705 1.47461 29.0762V9L1.48535 8.5625C1.71305 4.07139 5.42692 0.5 9.97461 0.5Z"/>
</clipPath><linearGradient id="paint0_linear_119_4426" x1="20.0126" y1="0" x2="20.0126" y2="38.076" gradientUnits="userSpaceOnUse">
<stop stop-color="#8AC5F0"/>
<stop offset="1" stop-color="#005B9C"/>
</linearGradient>
</defs>
</svg>
