<svg width="63" height="63" viewBox="0 0 63 63" fill="none" xmlns="http://www.w3.org/2000/svg">
<foreignObject x="-50" y="-50" width="163" height="163"><div xmlns="http://www.w3.org/1999/xhtml" style="backdrop-filter:blur(25px);clip-path:url(#bgblur_0_334_437_clip_path);height:100%;width:100%"></div></foreignObject><g data-figma-bg-blur-radius="50">
<path d="M0.5 15.5C0.5 7.21573 7.21573 0.5 15.5 0.5H47.5C55.7843 0.5 62.5 7.21573 62.5 15.5V47.5C62.5 55.7843 55.7843 62.5 47.5 62.5H15.5C7.21573 62.5 0.5 55.7843 0.5 47.5V15.5Z" fill="#4592CA"/>
<path d="M0.5 15.5C0.5 7.21573 7.21573 0.5 15.5 0.5H47.5C55.7843 0.5 62.5 7.21573 62.5 15.5V47.5C62.5 55.7843 55.7843 62.5 47.5 62.5H15.5C7.21573 62.5 0.5 55.7843 0.5 47.5V15.5Z" stroke="url(#paint0_linear_334_437)"/>
<g clip-path="url(#clip1_334_437)">
<path d="M27.5 20.5C26.1155 20.5 24.7622 20.9105 23.611 21.6797C22.4599 22.4489 21.5627 23.5421 21.0328 24.8212C20.503 26.1003 20.3644 27.5078 20.6345 28.8656C20.9046 30.2235 21.5713 31.4708 22.5503 32.4497C23.5292 33.4287 24.7765 34.0954 26.1344 34.3655C27.4922 34.6356 28.8997 34.497 30.1788 33.9672C31.4579 33.4373 32.5511 32.5401 33.3203 31.389C34.0895 30.2378 34.5 28.8845 34.5 27.5C34.5 25.6435 33.7625 23.863 32.4497 22.5503C31.137 21.2375 29.3565 20.5 27.5 20.5V20.5ZM22.5 27.5C22.4998 26.3473 22.8978 25.23 23.6267 24.3371C24.3556 23.4442 25.3706 22.8305 26.5 22.6V27.5C26.5 27.99 26.43 27.78 29.85 31.88C29.0906 32.2844 28.2397 32.486 27.3797 32.4653C26.5196 32.4446 25.6794 32.2023 24.9403 31.7619C24.2013 31.3215 23.5883 30.6978 23.1608 29.9512C22.7333 29.2046 22.5057 28.3603 22.5 27.5V27.5ZM31.39 30.6L28.5 27.14V22.6C29.334 22.7752 30.1094 23.1606 30.7526 23.7197C31.3958 24.2787 31.8854 24.9929 32.1749 25.7945C32.4644 26.596 32.5443 27.4582 32.4069 28.2992C32.2696 29.1403 31.9195 29.9323 31.39 30.6V30.6Z" fill="white"/>
<path d="M46.3801 40.96L40.9101 35.5C40.5354 35.1275 40.0285 34.9184 39.5001 34.9184C38.9718 34.9184 38.4648 35.1275 38.0901 35.5L37.5001 36.09L36.6501 35.24C38.2915 33.2978 39.2735 30.8844 39.4545 28.348C39.6354 25.8116 39.0059 23.2832 37.6568 21.1277C36.3077 18.9722 34.3088 17.301 31.9484 16.3552C29.588 15.4093 26.9881 15.2377 24.5238 15.8652C22.0596 16.4927 19.8584 17.8867 18.2377 19.8462C16.6171 21.8058 15.6608 24.2295 15.5069 26.7677C15.3529 29.3059 16.0093 31.8274 17.3812 33.9684C18.7532 36.1094 20.7698 37.7593 23.1401 38.68C23.2644 38.739 23.3995 38.7718 23.537 38.7762C23.6745 38.7807 23.8114 38.7567 23.9392 38.7058C24.067 38.6549 24.183 38.5782 24.2798 38.4805C24.3766 38.3827 24.4522 38.2661 24.5019 38.1378C24.5515 38.0095 24.5742 37.8723 24.5684 37.7349C24.5626 37.5974 24.5286 37.4626 24.4683 37.3389C24.4081 37.2153 24.323 37.1053 24.2184 37.016C24.1137 36.9267 23.9917 36.86 23.8601 36.82C21.5383 35.917 19.6372 34.1799 18.5289 31.9489C17.4206 29.7178 17.1849 27.1533 17.8681 24.7576C18.5513 22.3619 20.1041 20.3075 22.2225 18.9966C24.3408 17.6856 26.8723 17.2126 29.3211 17.6701C31.7699 18.1275 33.9598 19.4826 35.4621 21.4699C36.9643 23.4572 37.6706 25.9337 37.4428 28.4145C37.215 30.8952 36.0695 33.2016 34.2304 34.8821C32.3914 36.5626 29.9913 37.4962 27.5001 37.5C27.2349 37.5 26.9806 37.6053 26.793 37.7929C26.6055 37.9804 26.5001 38.2348 26.5001 38.5C26.5001 38.7652 26.6055 39.0196 26.793 39.2071C26.9806 39.3946 27.2349 39.5 27.5001 39.5C30.3375 39.504 33.0828 38.4931 35.2401 36.65L36.0901 37.5C35.4501 38.14 34.9101 38.5 34.9101 39.5C34.9124 40.0296 35.1245 40.5366 35.5001 40.91L40.9601 46.38C41.6789 47.0987 42.6537 47.5025 43.6701 47.5025C44.6866 47.5025 45.6614 47.0987 46.3801 46.38C47.0989 45.6613 47.5026 44.6864 47.5026 43.67C47.5026 42.6535 47.0989 41.6787 46.3801 40.96V40.96ZM43.6701 45.5C43.1858 45.4968 42.7223 45.3028 42.3801 44.96L36.9101 39.5L39.5001 36.91L44.9601 42.38C45.2144 42.6359 45.3875 42.9612 45.4574 43.3152C45.5274 43.6691 45.4911 44.0358 45.3533 44.3692C45.2154 44.7026 44.9821 44.9879 44.6826 45.189C44.3832 45.3902 44.0309 45.4984 43.6701 45.5V45.5Z" fill="white"/>
</g>
</g>
<defs>
<clipPath id="bgblur_0_334_437_clip_path" transform="translate(50 50)"><path d="M0.5 15.5C0.5 7.21573 7.21573 0.5 15.5 0.5H47.5C55.7843 0.5 62.5 7.21573 62.5 15.5V47.5C62.5 55.7843 55.7843 62.5 47.5 62.5H15.5C7.21573 62.5 0.5 55.7843 0.5 47.5V15.5Z"/>
</clipPath><linearGradient id="paint0_linear_334_437" x1="31.5" y1="0.117284" x2="31.5" y2="62.8827" gradientUnits="userSpaceOnUse">
<stop stop-color="#8AC5F0"/>
<stop offset="1" stop-color="#005B9C"/>
</linearGradient>
<clipPath id="clip1_334_437">
<rect width="32" height="32" fill="white" transform="translate(15.5 15.5)"/>
</clipPath>
</defs>
</svg>
