<svg width="63" height="63" viewBox="0 0 63 63" fill="none" xmlns="http://www.w3.org/2000/svg">
<foreignObject x="-50" y="-50" width="163" height="163"><div xmlns="http://www.w3.org/1999/xhtml" style="backdrop-filter:blur(25px);clip-path:url(#bgblur_0_353_479_clip_path);height:100%;width:100%"></div></foreignObject><g data-figma-bg-blur-radius="50">
<path d="M0.5 15.5C0.5 7.21573 7.21573 0.5 15.5 0.5H47.5C55.7843 0.5 62.5 7.21573 62.5 15.5V47.5C62.5 55.7843 55.7843 62.5 47.5 62.5H15.5C7.21573 62.5 0.5 55.7843 0.5 47.5V15.5Z" fill="#4592CA"/>
<path d="M0.5 15.5C0.5 7.21573 7.21573 0.5 15.5 0.5H47.5C55.7843 0.5 62.5 7.21573 62.5 15.5V47.5C62.5 55.7843 55.7843 62.5 47.5 62.5H15.5C7.21573 62.5 0.5 55.7843 0.5 47.5V15.5Z" stroke="url(#paint0_linear_353_479)"/>
<g clip-path="url(#clip1_353_479)">
<path d="M42.87 39.57L38.5 37.82V36.5C40.29 35.84 41.5 34.87 41.5 33.5V28.5C41.4792 28.0974 41.3621 27.7056 41.1585 27.3576C40.9549 27.0096 40.6708 26.7155 40.33 26.5C40.6708 26.2846 40.9549 25.9905 41.1585 25.6425C41.3621 25.2945 41.4792 24.9027 41.5 24.5V19.5C41.5 16.75 36.32 15.5 31.5 15.5C30.4574 15.4982 29.4155 15.5583 28.38 15.68C28.2493 15.6949 28.1227 15.7355 28.0077 15.7994C27.8926 15.8633 27.7913 15.9492 27.7096 16.0524C27.6278 16.1555 27.5672 16.2737 27.5313 16.4003C27.4953 16.5269 27.4847 16.6593 27.5 16.79C27.5325 17.0523 27.6675 17.291 27.8755 17.454C28.0835 17.6171 28.3476 17.6911 28.61 17.66C29.5697 17.5546 30.5345 17.5012 31.5 17.5C36.75 17.5 39.5 18.99 39.5 19.5C39.5 20.01 36.75 21.5 31.5 21.5C26.25 21.5 23.5 20.01 23.5 19.5C23.5 19.44 23.74 19.01 24.88 18.5C25.0016 18.4497 25.1121 18.3758 25.2052 18.2827C25.2982 18.1895 25.3719 18.0789 25.422 17.9572C25.4722 17.8355 25.4979 17.7051 25.4975 17.5734C25.4972 17.4418 25.4708 17.3115 25.42 17.19C25.3182 16.9469 25.1246 16.7537 24.8811 16.6526C24.6377 16.5514 24.3641 16.5505 24.12 16.65C21.95 17.58 21.5 18.71 21.5 19.5V24.5C21.5208 24.9027 21.6379 25.2945 21.8415 25.6425C22.0451 25.9905 22.3292 26.2846 22.67 26.5C22.3292 26.7155 22.0451 27.0096 21.8415 27.3576C21.6379 27.7056 21.5208 28.0974 21.5 28.5V33.5C21.5 34.83 22.71 35.8 24.5 36.5V37.86L20.13 39.57C19.9439 39.6441 19.7844 39.7724 19.6721 39.9382C19.5598 40.104 19.4998 40.2998 19.5 40.5V42.5C19.5 42.7653 19.6054 43.0196 19.7929 43.2071C19.9804 43.3947 20.2348 43.5 20.5 43.5C20.7652 43.5 21.0196 43.3947 21.2071 43.2071C21.3946 43.0196 21.5 42.7653 21.5 42.5V41.18L25.87 39.43C26.0561 39.3559 26.2156 39.2277 26.3279 39.0619C26.4402 38.896 26.5002 38.7003 26.5 38.5V37.02C27.8177 37.2909 29.1556 37.4515 30.5 37.5V42.5C30.5 42.7653 30.6054 43.0196 30.7929 43.2071C30.9804 43.3947 31.2348 43.5 31.5 43.5C31.7652 43.5 32.0196 43.3947 32.2071 43.2071C32.3946 43.0196 32.5 42.7653 32.5 42.5V37.5C33.8438 37.458 35.1818 37.3042 36.5 37.04V38.5C36.4998 38.7003 36.5598 38.896 36.6721 39.0619C36.7844 39.2277 36.9439 39.3559 37.13 39.43L41.5 41.18V42.5C41.5 42.7653 41.6054 43.0196 41.7929 43.2071C41.9804 43.3947 42.2348 43.5 42.5 43.5C42.7652 43.5 43.0196 43.3947 43.2071 43.2071C43.3946 43.0196 43.5 42.7653 43.5 42.5V40.5C43.5002 40.2998 43.4402 40.104 43.3279 39.9382C43.2156 39.7724 43.0561 39.6441 42.87 39.57V39.57ZM39.5 22.02V24.5C39.5 25.01 36.75 26.5 31.5 26.5C26.25 26.5 23.5 25.01 23.5 24.5V22.02C27.33 23.99 35.67 23.99 39.5 22.02ZM38.18 27.57C39.25 28.02 39.5 28.43 39.5 28.5C39.5 29.01 36.75 30.5 31.5 30.5C26.25 30.5 23.5 29.01 23.5 28.5C23.5 28.43 23.75 28.02 24.82 27.57C29.187 28.8098 33.813 28.8098 38.18 27.57ZM23.5 33.5V31.02C27.33 33.02 35.67 33.02 39.5 31.02V33.5C39.5 34.01 36.75 35.5 31.5 35.5C26.25 35.5 23.5 34.01 23.5 33.5Z" fill="white"/>
<path d="M31.5 47.5C30.9067 47.5 30.3266 47.3241 29.8333 46.9944C29.3399 46.6648 28.9554 46.1962 28.7284 45.6481C28.5013 45.0999 28.4419 44.4967 28.5576 43.9147C28.6734 43.3328 28.9591 42.7982 29.3787 42.3787C29.7982 41.9591 30.3328 41.6734 30.9147 41.5576C31.4967 41.4419 32.0999 41.5013 32.6481 41.7284C33.1962 41.9554 33.6648 42.3399 33.9944 42.8333C34.3241 43.3266 34.5 43.9067 34.5 44.5C34.5 45.2957 34.1839 46.0587 33.6213 46.6213C33.0587 47.1839 32.2957 47.5 31.5 47.5ZM31.5 43.5C31.3022 43.5 31.1089 43.5586 30.9444 43.6685C30.78 43.7784 30.6518 43.9346 30.5761 44.1173C30.5004 44.3 30.4806 44.5011 30.5192 44.6951C30.5578 44.8891 30.653 45.0673 30.7929 45.2071C30.9327 45.347 31.1109 45.4422 31.3049 45.4808C31.4989 45.5194 31.7 45.4996 31.8827 45.4239C32.0654 45.3482 32.2216 45.22 32.3315 45.0556C32.4414 44.8911 32.5 44.6978 32.5 44.5C32.5 44.2348 32.3946 43.9804 32.2071 43.7929C32.0196 43.6054 31.7652 43.5 31.5 43.5Z" fill="white"/>
<path d="M20.5 47.5C19.9067 47.5 19.3266 47.3241 18.8333 46.9944C18.3399 46.6648 17.9554 46.1962 17.7284 45.6481C17.5013 45.0999 17.4419 44.4967 17.5576 43.9147C17.6734 43.3328 17.9591 42.7982 18.3787 42.3787C18.7982 41.9591 19.3328 41.6734 19.9147 41.5576C20.4967 41.4419 21.0999 41.5013 21.6481 41.7284C22.1962 41.9554 22.6648 42.3399 22.9944 42.8333C23.3241 43.3266 23.5 43.9067 23.5 44.5C23.5 45.2957 23.1839 46.0587 22.6213 46.6213C22.0587 47.1839 21.2957 47.5 20.5 47.5ZM20.5 43.5C20.3022 43.5 20.1089 43.5586 19.9444 43.6685C19.78 43.7784 19.6518 43.9346 19.5761 44.1173C19.5004 44.3 19.4806 44.5011 19.5192 44.6951C19.5578 44.8891 19.653 45.0673 19.7929 45.2071C19.9327 45.347 20.1109 45.4422 20.3049 45.4808C20.4989 45.5194 20.7 45.4996 20.8827 45.4239C21.0654 45.3482 21.2216 45.22 21.3315 45.0556C21.4414 44.8911 21.5 44.6978 21.5 44.5C21.5 44.2348 21.3946 43.9804 21.2071 43.7929C21.0196 43.6054 20.7652 43.5 20.5 43.5Z" fill="white"/>
<path d="M42.5 47.5C41.9067 47.5 41.3266 47.3241 40.8333 46.9944C40.3399 46.6648 39.9554 46.1962 39.7284 45.6481C39.5013 45.0999 39.4419 44.4967 39.5576 43.9147C39.6734 43.3328 39.9591 42.7982 40.3787 42.3787C40.7982 41.9591 41.3328 41.6734 41.9147 41.5576C42.4967 41.4419 43.0999 41.5013 43.6481 41.7284C44.1962 41.9554 44.6648 42.3399 44.9944 42.8333C45.3241 43.3266 45.5 43.9067 45.5 44.5C45.5 45.2957 45.1839 46.0587 44.6213 46.6213C44.0587 47.1839 43.2957 47.5 42.5 47.5ZM42.5 43.5C42.3022 43.5 42.1089 43.5586 41.9444 43.6685C41.78 43.7784 41.6518 43.9346 41.5761 44.1173C41.5004 44.3 41.4806 44.5011 41.5192 44.6951C41.5578 44.8891 41.653 45.0673 41.7929 45.2071C41.9327 45.347 42.1109 45.4422 42.3049 45.4808C42.4989 45.5194 42.7 45.4996 42.8827 45.4239C43.0654 45.3482 43.2216 45.22 43.3315 45.0556C43.4414 44.8911 43.5 44.6978 43.5 44.5C43.5 44.2348 43.3946 43.9804 43.2071 43.7929C43.0196 43.6054 42.7652 43.5 42.5 43.5Z" fill="white"/>
</g>
</g>
<defs>
<clipPath id="bgblur_0_353_479_clip_path" transform="translate(50 50)"><path d="M0.5 15.5C0.5 7.21573 7.21573 0.5 15.5 0.5H47.5C55.7843 0.5 62.5 7.21573 62.5 15.5V47.5C62.5 55.7843 55.7843 62.5 47.5 62.5H15.5C7.21573 62.5 0.5 55.7843 0.5 47.5V15.5Z"/>
</clipPath><linearGradient id="paint0_linear_353_479" x1="31.5" y1="0.117284" x2="31.5" y2="62.8827" gradientUnits="userSpaceOnUse">
<stop stop-color="#8AC5F0"/>
<stop offset="1" stop-color="#005B9C"/>
</linearGradient>
<clipPath id="clip1_353_479">
<rect width="32" height="32" fill="white" transform="translate(15.5 15.5)"/>
</clipPath>
</defs>
</svg>
